<?xml version="1.0" encoding="utf-8"?>
<!-- Generator: Adobe Illustrator 16.0.0, SVG Export Plug-In . SVG Version: 6.00 Build 0)  -->
<!DOCTYPE svg PUBLIC "-//W3C//DTD SVG 1.1//EN" "http://www.w3.org/Graphics/SVG/1.1/DTD/svg11.dtd">
<svg version="1.1" id="Layer_1" xmlns="http://www.w3.org/2000/svg" xmlns:xlink="http://www.w3.org/1999/xlink" x="0px" y="0px"
	 width="128px" height="32px" viewBox="0 0 128 32" enable-background="new 0 0 128 32" xml:space="preserve">
<path fill-rule="evenodd" clip-rule="evenodd" fill="#EAEAEA" d="M107.314,3.792v0.297L97.73,18.322v9.639h-6.858v-9.639
	L81.694,4.057V3.792h7.693l5.012,8.298l5.199-8.298H107.314z M79.298,4.057l3.518,5.473h-6.781v3.451h9.012l2.419,3.781v1.78H76.034
	v3.671h12.441v5.748H59.878V9.431h-4.297v18.53h-6.782V9.431H39.38v18.53h-6.782V9.431h-6.671v18.53h-6.781V9.431h-4.32v18.53H8.045
	V9.431H1V3.792h21.5l-3.354,5.639h6.715V3.792h40.841v18.366h2.617V3.792h9.979V4.057z"/>
<g>
	<path fill="#EAEAEA" d="M103.322,27.961h-2.501v-2.436h2.501V27.961z"/>
	<path fill="#EAEAEA" d="M108.688,15.564h-2.35v-2.201h2.35V15.564z M108.688,27.961h-2.35V17.432h2.35V27.961z"/>
	<path fill="#EAEAEA" d="M115.858,17.186c0.78,0,1.486,0.119,2.12,0.359s1.174,0.594,1.621,1.063s0.792,1.045,1.036,1.728
		C120.878,21.018,121,21.8,121,22.681c0,0.888-0.122,1.674-0.364,2.361c-0.244,0.687-0.589,1.265-1.036,1.733
		s-0.987,0.824-1.621,1.067s-1.34,0.365-2.12,0.365c-0.772,0-1.476-0.122-2.109-0.365c-0.633-0.243-1.171-0.599-1.614-1.067
		c-0.444-0.469-0.788-1.047-1.03-1.733c-0.244-0.688-0.365-1.474-0.365-2.361c0-0.881,0.121-1.663,0.365-2.346
		c0.242-0.683,0.586-1.259,1.03-1.728c0.443-0.469,0.981-0.822,1.614-1.063C114.383,17.305,115.086,17.186,115.858,17.186z
		 M115.858,26.447c0.408,0,0.778-0.078,1.111-0.236c0.332-0.156,0.617-0.393,0.854-0.708c0.236-0.313,0.418-0.706,0.547-1.175
		s0.193-1.018,0.193-1.647c0-0.623-0.064-1.167-0.193-1.632s-0.311-0.854-0.547-1.164c-0.236-0.313-0.521-0.546-0.854-0.703
		c-0.333-0.158-0.703-0.236-1.111-0.236c-0.407,0-0.777,0.078-1.111,0.236c-0.332,0.157-0.616,0.391-0.853,0.703
		c-0.235,0.311-0.418,0.699-0.548,1.164c-0.129,0.465-0.192,1.009-0.192,1.632c0,0.63,0.063,1.179,0.192,1.647
		c0.13,0.469,0.313,0.861,0.548,1.175c0.236,0.315,0.521,0.552,0.853,0.708C115.081,26.369,115.451,26.447,115.858,26.447z"/>
</g>
</svg>
